<?xml version="1.0" encoding="UTF-8" standalone="no"?>
<!-- Created with Inkscape (http://www.inkscape.org/) -->

<svg
   width="16"
   height="16"
   viewBox="0 0 4.2333328 4.2333328"
   version="1.1"
   id="svg1"
   inkscape:version="1.4.2 (ebf0e940d0, 2025-05-08)"
   sodipodi:docname="favicon.svg"
   inkscape:export-filename="favicon.ico"
   inkscape:export-xdpi="3072"
   inkscape:export-ydpi="3072"
   xmlns:inkscape="http://www.inkscape.org/namespaces/inkscape"
   xmlns:sodipodi="http://sodipodi.sourceforge.net/DTD/sodipodi-0.dtd"
   xmlns="http://www.w3.org/2000/svg"
   xmlns:svg="http://www.w3.org/2000/svg"
   xmlns:rdf="http://www.w3.org/1999/02/22-rdf-syntax-ns#"
   xmlns:cc="http://creativecommons.org/ns#"
   xmlns:dc="http://purl.org/dc/elements/1.1/">
  <defs
     id="defs1" />
  <sodipodi:namedview
     id="base"
     pagecolor="#ffffff"
     bordercolor="#000000"
     borderopacity="0.3"
     inkscape:pageopacity="0.0"
     inkscape:pageshadow="2"
     inkscape:zoom="11.313709"
     inkscape:cx="-5.6126601"
     inkscape:cy="9.8111066"
     inkscape:document-units="mm"
     inkscape:showpageshadow="2"
     inkscape:pagecheckerboard="0"
     inkscape:deskcolor="#d1d1d1"
     inkscape:window-width="1920"
     inkscape:window-height="1019"
     inkscape:window-x="0"
     inkscape:window-y="0"
     inkscape:window-maximized="1"
     inkscape:current-layer="svg1" />
  <metadata
     id="metadata1">
    <rdf:RDF>
      <cc:Work
         rdf:about="">
        <dc:format>image/svg+xml</dc:format>
        <dc:type
           rdf:resource="http://purl.org/dc/dcmitype/StillImage" />
      </cc:Work>
    </rdf:RDF>
  </metadata>
  <path
     id="path1"
     style="fill:#ccc6b4;stroke-width:0.328315"
     d="M 4.225065,2.1166668 A 2.1083984,2.1083984 0 0 1 2.1166666,4.2250652 2.1083984,2.1083984 0 0 1 0.00826812,2.1166668 2.1083984,2.1083984 0 0 1 2.1166666,0.00826836 2.1083984,2.1083984 0 0 1 4.225065,2.1166668 Z" />
  <path
     style="fill:#ffffff;stroke-width:0.355946"
     id="path3"
     d="m 2.9629729,0.23182848 c -0.056425,0.0187185 -0.071505,0.0425804 -0.097247,0.0848706 -0.016001,0.0262837 -0.030917,0.052952 -0.045009,0.079853 -0.021761,0.0415443 -0.041527,0.0836702 -0.062526,0.12543844 C 2.7276549,0.58272862 2.6968069,0.64337677 2.6661139,0.7040699 2.6266479,0.7868439 2.5855069,0.8691727 2.5477167,0.95239228 2.3813477,1.3187532 2.39322,1.2583165 2.1752922,1.6302617 2.0120338,1.9089007 1.8862885,2.026497 1.6911086,2.3003198 1.6097117,2.4145135 1.4926664,2.5700783 1.4016146,2.6778291 1.1875382,2.8803511 1.1520977,3.0016305 0.90075711,3.1593044 c -0.0988636,0.062021 -0.22632332,0.1289919 -0.358557,0.1473875 -0.0376466,0.00524 -0.0773164,0.00139 -0.11464351,-0.00501 -0.0285854,-0.00491 -0.0530367,-0.01889 -0.079555,-0.028334 0.38430984,0.152416 0.30149583,0.1521278 0.22810554,0.074465 -0.0203478,-0.021535 -0.0181141,-0.026532 -0.038117,-0.04674 -0.0103452,-0.010447 -0.022723,-0.019685 -0.0331027,-0.030115 -0.022642,-0.021234 -0.0035,-0.061956 0.0105092,-0.080173 0.0532532,-0.069238 0.0991568,-0.082561 0.19617999,-0.120301 0.0455321,-0.017712 0.0933218,-0.031887 0.1399835,-0.047829 0.16076877,-0.00799 0.18046667,-0.023027 0.33730647,0.029678 0.067193,0.022581 0.1458555,0.040136 0.1901977,0.08448 0.030219,0.030222 -0.1766971,-0.064169 -0.142323,-0.036603 0.087907,0.070495 0.5373985,0.2856726 0.6407956,0.3345242 0.301727,0.1139143 0.6148856,0.2754793 0.9792301,0.2760225 0.1064475,1.588e-4 0.208215,-0.033577 0.3125407,-0.049564 0.2450879,-0.037559 0.5286978,-0.078124 0.773973,-0.1136579 l -0.015226,-0.00802 v 0 c -0.304703,0.044077 -0.52135,0.088381 -0.8386153,0.077767 C 2.9259061,3.6118 2.7576755,3.617264 2.6032498,3.5650078 2.4921005,3.5273957 1.8896334,3.3756036 1.6311462,3.2187153 1.4363343,3.1004745 1.2238195,3.0131419 1.0162202,2.9150101 0.88287378,2.8519775 0.9037906,2.8816428 0.74129064,2.9038655 c -0.0527683,0.00721 -0.18194786,0.059931 -0.23356091,0.069744 -0.0417133,0.021767 -0.12056336,0.09551 -0.15633144,0.1226589 -0.0125501,0.00952 -0.0606172,0.079609 -0.0707756,0.1029335 -0.0354114,0.08131 0.25474648,0.1988541 0.34499839,0.2371444 0.023328,0.00306 0.0464324,0.011077 0.069984,0.00921 0.0856348,-0.00676 0.13515286,-0.046772 0.19013342,-0.094726 0.049386,-0.04307 0.0934484,-0.089569 0.1363179,-0.1364622 C 1.1643534,3.0587225 1.2869324,2.8930796 1.4295351,2.7376088 1.6802405,2.4409197 1.7513046,2.3653829 1.9855313,2.0514363 2.073973,1.9328929 2.4076119,1.4549223 2.4995127,1.3301455 2.573957,1.2290702 2.6549475,1.1308046 2.7294717,1.0297627 2.7853723,0.95397102 2.8369699,0.87641198 2.8907198,0.79973666 3.0365009,0.58419483 2.9650025,0.68802621 3.0884444,0.51125758 c 0.017577,-0.0251695 0.035109,-0.0503566 0.052693,-0.0755232 0.026852,-0.0384314 0.049594,-0.0626317 0.042476,-0.10682607 z"
     sodipodi:nodetypes="cccsccsscscccccccccccccssccscssssccscccccsssccscc" />
</svg>
